<svg xmlns="http://www.w3.org/2000/svg" viewBox="0 0 38.51 38.51" id="vimeo">
  <g style="isolation:isolate">
    <g>
      <g>
        <g>
          <rect width="38.51" height="38.51" fill="#1c96e8" rx="6.97" ry="6.97"></rect>
          <path fill="#1c96e8" d="M38.46,31.46v-15.88c-2.26-2.25-4.51-4.49-6.75-6.75-.66-.71-1.62-1.09-2.84-1.13-3.46-.11-5.9,1.73-7.27,5.46-.07.2-.03.41.11.57,1,.95-2.41-2.4-5.09-5.07-.43-.41-1.01-.63-1.92-.63-1.66,0-5.37,3.04-8.42,5.69-.19.16-.35.3-.47.4-.29.25-.34.69-.1,1l.57.73c2.25,2.23,4.47,4.48,6.72,6.7,1.65,2.55,2.48,6.45,4.03,7.51,2.79,2.79,5.58,5.58,8.37,8.37h6.08c3.83,0,6.97-3.14,6.97-6.97Z" style="mix-blend-mode:multiply"></path>
          <path fill="#fff" d="M31.71,8.83c-.66-.71-1.62-1.09-2.84-1.13-3.46-.11-5.9,1.73-7.27,5.46-.07.2-.03.41.11.57.14.15.35.21.55.16.39-.11.78-.16,1.16-.16.5,0,1.17.09,1.51.53.26.34.29.85.1,1.51-.16.56-.97,2.06-1.98,3.64-1.23,1.93-1.91,2.79-2.1,2.79-.65,0-2.99-10.38-3.05-10.61-.67-2.38-1.01-3.57-3.19-3.57-1.66,0-5.37,3.04-8.42,5.69-.19.16-.35.3-.47.4-.29.25-.34.69-.1,1l.57.73c.24.31.68.37.99.15l.03-.02c.99-.7,1.92-1.36,2.62-1.4.76-.04,1.43,1.16,2.22,4,1.5,5.52,3.79,12.09,6.14,12.09s5.38-2.08,9.16-7c3.42-4.45,5.26-7.99,5.37-10.56.09-1.94-.29-3.38-1.12-4.27h0Z"></path>
        </g>
      </g>
    </g>
  </g>
</svg>
